<?xml version="1.0" encoding="utf-8"?>
<!-- Generator: Adobe Illustrator 25.0.0, SVG Export Plug-In . SVG Version: 6.00 Build 0)  -->
<svg version="1.1" id="Capa_1" xmlns="http://www.w3.org/2000/svg" xmlns:xlink="http://www.w3.org/1999/xlink" x="0px" y="0px"
	 width="24px" height="24px" viewBox="0 0 24 24" style="enable-background:new 0 0 24 24;" xml:space="preserve">
<style type="text/css">
	.st0{fill:#004C00;}
	.st1{fill-rule:evenodd;clip-rule:evenodd;fill:#FFFFFF;}
</style>
<circle class="st0" cx="12" cy="12" r="12"/>
<path class="st1" d="M7.7,12.7v6.7c0,0.3-0.3,0.6-0.6,0.6H4.6C4.3,20,4,19.7,4,19.4V7.3C4,7,4.2,6.8,4.4,6.7c0,0,5.4-2,6.9-2.6
	c0.5-0.1,0.9-0.1,1.4,0c1.6,0.6,6.9,2.6,6.9,2.6c0.3,0.1,0.5,0.5,0.4,0.8S19.5,8,19.2,7.8c0,0-5.4-2-6.9-2.6c-0.1-0.1-0.3-0.1-0.4,0
	L5.2,7.7v11.1h1.2V9.7c0-0.3,0.3-0.6,0.6-0.6h9.8c0.3,0,0.6,0.3,0.6,0.6v9.1h1.2V9.7c0-0.3,0.3-0.6,0.6-0.6s0.6,0.3,0.6,0.6v9.7
	c0,0.3-0.3,0.6-0.6,0.6h-2.5c-0.3,0-0.6-0.3-0.6-0.6v-6.7H7.7z M16.3,11.5v-1.2H7.7v1.2H16.3z"/>
</svg>
