<?xml version="1.0" encoding="utf-8"?>
<!-- Generator: Adobe Illustrator 25.0.0, SVG Export Plug-In . SVG Version: 6.00 Build 0)  -->
<svg version="1.1" id="Capa_1" xmlns="http://www.w3.org/2000/svg" xmlns:xlink="http://www.w3.org/1999/xlink" x="0px" y="0px"
	 width="24px" height="24px" viewBox="0 0 24 24" style="enable-background:new 0 0 24 24;" xml:space="preserve">
<style type="text/css">
	.st0{fill:#FFFFFF;}
	.st1{fill-rule:evenodd;clip-rule:evenodd;}
	.st2{fill:#004C00;}
</style>
<circle class="st0" cx="12" cy="12" r="12"/>
<path class="st1" d="M4.6,20C4,20,4,19.4,4,19.4V7.3C4,7,4.2,6.8,4.4,6.7c0,0,5.4-2,6.9-2.6c0.5-0.1,0.9-0.1,1.4,0
	c1.6,0.6,6.9,2.6,6.9,2.6c0.3,0.1,0.5,0.5,0.4,0.8c-0.1,0.3-0.5,0.5-0.8,0.3c0,0-5.4-2-6.9-2.6c-0.1-0.1-0.3-0.1-0.4,0L5.2,7.7v11.7
	C5.2,19.4,5.2,20,4.6,20z M19.4,20c-0.5,0-0.6-0.6-0.6-0.6V9.7c0-0.3,0.3-0.6,0.6-0.6c0.3,0,0.6,0.3,0.6,0.6v9.7
	C20,19.4,19.9,20,19.4,20z"/>
<path class="st2" d="M9.4,17.5c0.2,0,0.3-0.1,0.5-0.2C10,17.2,10,17,10,16.8v-2.8l2.4-3.4c0,0,0.1-0.1,0.1-0.1v-0.1
	c0-0.1,0-0.1,0-0.2c0-0.4-0.3-0.7-0.7-0.7c-0.2,0-0.5,0.1-0.6,0.3l-1.8,2.7l-2-2.8C7.3,9.7,7.2,9.6,7,9.5H6.9
	c-0.2,0-0.4,0.1-0.5,0.2C6.2,9.9,6.1,10,6.2,10.2c0,0.1,0,0.2,0.1,0.3c0,0.1,0.1,0.2,0.2,0.3l2.4,3.1v2.9c0,0.2,0,0.3,0.1,0.4
	l0.1,0.1C9,17.5,9.2,17.5,9.4,17.5z"/>
<path class="st1" d="M16.8,17.3c-0.4,0.2-0.9,0.3-1.4,0.3c-0.5,0-0.9-0.1-1.4-0.2c-0.4-0.2-0.8-0.4-1.2-0.7
	c-0.1-0.1-0.2-0.2-0.2-0.3c0-0.1-0.1-0.2-0.1-0.3c0-0.2,0.1-0.3,0.2-0.5c0.1-0.1,0.3-0.2,0.5-0.2c0.1,0,0.3,0,0.4,0.1
	c0.3,0.2,0.5,0.4,0.8,0.5c0.3,0.1,0.7,0.2,1,0.2c0.3,0,0.5,0,0.8-0.1c0.2-0.1,0.4-0.2,0.6-0.3c0.1-0.1,0.2-0.3,0.2-0.5
	c0-0.2-0.1-0.4-0.2-0.6c-0.2-0.2-0.4-0.3-0.6-0.4c-0.3-0.1-0.7-0.2-1-0.3c-0.4,0-0.7-0.1-1.1-0.3c-0.3-0.1-0.5-0.3-0.8-0.5
	c-0.2-0.2-0.4-0.4-0.5-0.7c-0.1-0.3-0.2-0.6-0.2-0.9c0-0.4,0.1-0.9,0.4-1.2c0.3-0.3,0.6-0.6,1-0.7c0.4-0.2,0.9-0.3,1.4-0.3
	c0.5,0,0.9,0.1,1.3,0.3c0.4,0.1,0.7,0.3,1,0.5c0.2,0.1,0.3,0.4,0.3,0.6c0,0.2-0.1,0.3-0.2,0.4c-0.1,0.1-0.3,0.2-0.4,0.2
	c-0.1,0-0.2,0-0.3-0.1c-0.1-0.1-0.3-0.2-0.5-0.3C16.4,11.1,16.2,11,16,11c-0.2-0.1-0.4-0.1-0.6-0.1c-0.3,0-0.5,0-0.8,0.1
	c-0.2,0.1-0.4,0.2-0.5,0.3c-0.1,0.1-0.2,0.3-0.2,0.5c0,0.2,0.1,0.4,0.2,0.5c0.2,0.2,0.3,0.3,0.6,0.3c0.3,0.1,0.6,0.2,0.9,0.2
	c0.4,0.1,0.8,0.2,1.2,0.3c0.3,0.1,0.6,0.2,0.8,0.4c0.2,0.2,0.4,0.4,0.5,0.7c0.1,0.3,0.2,0.6,0.2,1c0,0.4-0.1,0.9-0.4,1.2
	C17.5,16.9,17.2,17.1,16.8,17.3L16.8,17.3z"/>
</svg>
