<svg id="Capa_1" data-name="Capa 1" xmlns="http://www.w3.org/2000/svg" viewBox="0 0 24 24"><defs><style>.cls-1{fill:#fff;}.cls-2{fill-rule:evenodd;}.cls-3{fill:#004c00;}</style></defs><circle class="cls-1" cx="12" cy="12" r="12"/><path class="cls-2" d="M7.69,11.64v6.7a.65.65,0,0,1-.6.6H4.59a.65.65,0,0,1-.6-.6V6.24a.68.68,0,0,1,.4-.6s5.4-2,6.9-2.6a3.3,3.3,0,0,1,1.4,0l6.9,2.6a.68.68,0,0,1,.4.8.55.55,0,0,1-.8.3s-5.4-2-6.9-2.6a.3.3,0,0,0-.4,0l-6.7,2.5v11.1h1.2V8.64A.65.65,0,0,1,7,8h9.8a.65.65,0,0,1,.6.6v9.1h1.2V8.64a.6.6,0,0,1,1.2,0v9.7a.65.65,0,0,1-.6.6h-2.5a.65.65,0,0,1-.6-.6v-6.7Zm8.6-1.2V9.24H7.69v1.2Z"/><path class="cls-3" d="M10.22,17.84a.41.41,0,0,0,.29-.13.39.39,0,0,0,.12-.3V15.67l1.49-2.13,0-.08v-.05a.29.29,0,0,0,0-.13.43.43,0,0,0-.42-.44.41.41,0,0,0-.36.21l-1.14,1.72L9,13a.5.5,0,0,0-.29-.2H8.67a.48.48,0,0,0-.31.12.37.37,0,0,0-.15.32.4.4,0,0,0,0,.15.51.51,0,0,0,.09.18l1.49,2v1.83a.5.5,0,0,0,.08.27l0,0A.5.5,0,0,0,10.22,17.84Z"/><path class="cls-2" d="M14.83,17.66a2.23,2.23,0,0,1-.88.18,3,3,0,0,1-.89-.13,2,2,0,0,1-.75-.44.49.49,0,0,1-.2-.38.42.42,0,0,1,.12-.28.39.39,0,0,1,.54,0,2.62,2.62,0,0,0,.53.33A1.64,1.64,0,0,0,14,17a1.34,1.34,0,0,0,.48-.08.87.87,0,0,0,.35-.22.41.41,0,0,0,.14-.31A.59.59,0,0,0,14.8,16a1,1,0,0,0-.39-.25,3.11,3.11,0,0,0-.67-.16,2.64,2.64,0,0,1-.67-.17,1.66,1.66,0,0,1-.49-.3,1.09,1.09,0,0,1-.29-.44,1.45,1.45,0,0,1-.1-.55,1.39,1.39,0,0,1,.24-.79,1.58,1.58,0,0,1,.62-.46,2.47,2.47,0,0,1,.89-.17,2.86,2.86,0,0,1,.86.17,2.22,2.22,0,0,1,.64.35.52.52,0,0,1,.21.38.45.45,0,0,1-.41.41.33.33,0,0,1-.19-.06,1.23,1.23,0,0,0-.31-.19,2.74,2.74,0,0,0-.4-.15,1.32,1.32,0,0,0-.39-.06,1.53,1.53,0,0,0-.52.08.66.66,0,0,0-.31.21.45.45,0,0,0-.11.31.55.55,0,0,0,.12.35.8.8,0,0,0,.36.22c.19.06.37.11.56.15a4.82,4.82,0,0,1,.75.18,1.59,1.59,0,0,1,.53.28,1,1,0,0,1,.32.41,1.66,1.66,0,0,1,.11.62,1.26,1.26,0,0,1-.25.79,1.68,1.68,0,0,1-.68.49Z"/></svg>